<svg width="405" height="277" viewBox="0 0 405 277" fill="none" xmlns="http://www.w3.org/2000/svg">
<rect y="2.38419e-06" width="82.5" height="231" rx="33" fill="#F5535F"/>
<rect x="107.25" width="82.5" height="231" rx="33" fill="#F5535F"/>
<rect x="214.5" width="82.5" height="231" rx="33" fill="#F5535F"/>
<rect x="321.75" y="90.75" width="82.5" height="140.25" rx="33" fill="#FDA730"/>
<rect x="321.75" width="82.5" height="66" rx="33" fill="#2793E1"/>
<path d="M9.87102 270V248.473H18.3642C19.997 248.473 21.388 248.785 22.5372 249.408C23.6865 250.025 24.5624 250.883 25.1651 251.984C25.7747 253.077 26.0795 254.338 26.0795 255.768C26.0795 257.197 25.7712 258.459 25.1545 259.552C24.5379 260.645 23.6444 261.496 22.4741 262.106C21.3109 262.716 19.9024 263.02 18.2486 263.02H12.8352V259.373H17.5128C18.3887 259.373 19.1105 259.222 19.6781 258.921C20.2527 258.613 20.6802 258.189 20.9605 257.649C21.2478 257.103 21.3915 256.475 21.3915 255.768C21.3915 255.053 21.2478 254.429 20.9605 253.897C20.6802 253.357 20.2527 252.94 19.6781 252.646C19.1035 252.344 18.3747 252.194 17.4918 252.194H14.4224V270H9.87102ZM35.9865 270.315C34.3537 270.315 32.9417 269.968 31.7504 269.275C30.5661 268.574 29.6517 267.6 29.007 266.353C28.3623 265.098 28.0399 263.644 28.0399 261.99C28.0399 260.323 28.3623 258.865 29.007 257.618C29.6517 256.363 30.5661 255.389 31.7504 254.695C32.9417 253.995 34.3537 253.644 35.9865 253.644C37.6193 253.644 39.0278 253.995 40.2121 254.695C41.4034 255.389 42.3214 256.363 42.9661 257.618C43.6107 258.865 43.9331 260.323 43.9331 261.99C43.9331 263.644 43.6107 265.098 42.9661 266.353C42.3214 267.6 41.4034 268.574 40.2121 269.275C39.0278 269.968 37.6193 270.315 35.9865 270.315ZM36.0075 266.847C36.7503 266.847 37.3705 266.636 37.868 266.216C38.3656 265.788 38.7405 265.207 38.9928 264.471C39.252 263.735 39.3817 262.898 39.3817 261.959C39.3817 261.02 39.252 260.182 38.9928 259.447C38.7405 258.711 38.3656 258.129 37.868 257.702C37.3705 257.274 36.7503 257.061 36.0075 257.061C35.2577 257.061 34.627 257.274 34.1155 257.702C33.6109 258.129 33.229 258.711 32.9697 259.447C32.7175 260.182 32.5913 261.02 32.5913 261.959C32.5913 262.898 32.7175 263.735 32.9697 264.471C33.229 265.207 33.6109 265.788 34.1155 266.216C34.627 266.636 35.2577 266.847 36.0075 266.847ZM46.8447 270V253.855H51.1859V256.672H51.3541C51.6484 255.67 52.1425 254.913 52.8362 254.401C53.53 253.883 54.3288 253.623 55.2328 253.623C55.4571 253.623 55.6988 253.637 55.9581 253.665C56.2174 253.693 56.4451 253.732 56.6413 253.781V257.754C56.4311 257.691 56.1403 257.635 55.7689 257.586C55.3975 257.537 55.0576 257.512 54.7493 257.512C54.0906 257.512 53.5019 257.656 52.9834 257.943C52.4718 258.224 52.0654 258.616 51.7641 259.121C51.4697 259.625 51.3226 260.207 51.3226 260.866V270H46.8447ZM68.3536 253.855V257.218H58.6306V253.855H68.3536ZM60.838 249.986H65.3158V265.039C65.3158 265.452 65.3789 265.774 65.505 266.006C65.6312 266.23 65.8064 266.388 66.0306 266.479C66.2619 266.57 66.5282 266.615 66.8295 266.615C67.0397 266.615 67.2499 266.598 67.4602 266.563C67.6704 266.521 67.8316 266.489 67.9437 266.468L68.6479 269.8C68.4237 269.87 68.1084 269.951 67.7019 270.042C67.2955 270.14 66.8014 270.2 66.2198 270.221C65.1407 270.263 64.1946 270.119 63.3817 269.79C62.5759 269.46 61.9487 268.949 61.5002 268.255C61.0517 267.561 60.831 266.685 60.838 265.627V249.986ZM75.8745 270.305C74.8444 270.305 73.9264 270.126 73.1205 269.769C72.3147 269.404 71.677 268.868 71.2075 268.161C70.745 267.446 70.5137 266.556 70.5137 265.491C70.5137 264.594 70.6784 263.84 71.0077 263.231C71.3371 262.621 71.7856 262.13 72.3532 261.759C72.9208 261.388 73.5655 261.107 74.2873 260.918C75.0161 260.729 75.7799 260.596 76.5788 260.519C77.5178 260.421 78.2746 260.33 78.8492 260.245C79.4238 260.154 79.8408 260.021 80.1001 259.846C80.3594 259.671 80.489 259.412 80.489 259.068V259.005C80.489 258.339 80.2788 257.824 79.8583 257.46C79.4449 257.096 78.8562 256.913 78.0924 256.913C77.2865 256.913 76.6453 257.092 76.1688 257.449C75.6923 257.8 75.377 258.241 75.2228 258.774L71.0813 258.437C71.2916 257.456 71.705 256.609 72.3217 255.894C72.9383 255.172 73.7337 254.618 74.7077 254.233C75.6888 253.841 76.824 253.644 78.1134 253.644C79.0104 253.644 79.8688 253.749 80.6887 253.96C81.5156 254.17 82.2479 254.496 82.8856 254.937C83.5303 255.379 84.0383 255.946 84.4097 256.64C84.7811 257.327 84.9668 258.15 84.9668 259.11V270H80.7202V267.761H80.5941C80.3348 268.266 79.988 268.711 79.5535 269.096C79.119 269.474 78.5969 269.772 77.9873 269.989C77.3776 270.2 76.6734 270.305 75.8745 270.305ZM77.1569 267.214C77.8156 267.214 78.3972 267.085 78.9018 266.826C79.4063 266.559 79.8023 266.202 80.0896 265.753C80.3769 265.305 80.5205 264.797 80.5205 264.229V262.516C80.3804 262.607 80.1877 262.691 79.9424 262.768C79.7041 262.838 79.4344 262.905 79.133 262.968C78.8317 263.024 78.5304 263.077 78.2291 263.126C77.9277 263.168 77.6544 263.206 77.4092 263.241C76.8836 263.318 76.4246 263.441 76.0322 263.609C75.6398 263.777 75.3349 264.005 75.1177 264.292C74.9005 264.573 74.7918 264.923 74.7918 265.343C74.7918 265.953 75.0126 266.419 75.4541 266.741C75.9025 267.057 76.4702 267.214 77.1569 267.214ZM92.9187 248.473V270H88.4408V248.473H92.9187ZM103.441 248.473H109.054L114.982 262.936H115.234L121.163 248.473H126.776V270H122.361V255.988H122.182L116.611 269.895H113.605L108.034 255.936H107.855V270H103.441V248.473ZM130.442 270V253.855H134.919V270H130.442ZM132.691 251.773C132.025 251.773 131.454 251.553 130.978 251.111C130.508 250.663 130.273 250.127 130.273 249.503C130.273 248.886 130.508 248.357 130.978 247.916C131.454 247.467 132.025 247.243 132.691 247.243C133.357 247.243 133.924 247.467 134.394 247.916C134.87 248.357 135.109 248.886 135.109 249.503C135.109 250.127 134.87 250.663 134.394 251.111C133.924 251.553 133.357 251.773 132.691 251.773ZM142.984 248.473V270H138.506V248.473H142.984ZM146.571 270V253.855H151.049V270H146.571ZM148.821 251.773C148.155 251.773 147.584 251.553 147.107 251.111C146.638 250.663 146.403 250.127 146.403 249.503C146.403 248.886 146.638 248.357 147.107 247.916C147.584 247.467 148.155 247.243 148.821 247.243C149.486 247.243 150.054 247.467 150.524 247.916C151 248.357 151.238 248.886 151.238 249.503C151.238 250.127 151 250.663 150.524 251.111C150.054 251.553 149.486 251.773 148.821 251.773ZM163.224 253.855V257.218H153.501V253.855H163.224ZM155.708 249.986H160.186V265.039C160.186 265.452 160.249 265.774 160.375 266.006C160.502 266.23 160.677 266.388 160.901 266.479C161.132 266.57 161.398 266.615 161.7 266.615C161.91 266.615 162.12 266.598 162.33 266.563C162.541 266.521 162.702 266.489 162.814 266.468L163.518 269.8C163.294 269.87 162.979 269.951 162.572 270.042C162.166 270.14 161.672 270.2 161.09 270.221C160.011 270.263 159.065 270.119 158.252 269.79C157.446 269.46 156.819 268.949 156.371 268.255C155.922 267.561 155.701 266.685 155.708 265.627V249.986ZM170.745 270.305C169.715 270.305 168.797 270.126 167.991 269.769C167.185 269.404 166.547 268.868 166.078 268.161C165.615 267.446 165.384 266.556 165.384 265.491C165.384 264.594 165.549 263.84 165.878 263.231C166.207 262.621 166.656 262.13 167.224 261.759C167.791 261.388 168.436 261.107 169.158 260.918C169.886 260.729 170.65 260.596 171.449 260.519C172.388 260.421 173.145 260.33 173.72 260.245C174.294 260.154 174.711 260.021 174.97 259.846C175.23 259.671 175.359 259.412 175.359 259.068V259.005C175.359 258.339 175.149 257.824 174.729 257.46C174.315 257.096 173.727 256.913 172.963 256.913C172.157 256.913 171.516 257.092 171.039 257.449C170.563 257.8 170.247 258.241 170.093 258.774L165.952 258.437C166.162 257.456 166.575 256.609 167.192 255.894C167.809 255.172 168.604 254.618 169.578 254.233C170.559 253.841 171.694 253.644 172.984 253.644C173.881 253.644 174.739 253.749 175.559 253.96C176.386 254.17 177.118 254.496 177.756 254.937C178.401 255.379 178.909 255.946 179.28 256.64C179.651 257.327 179.837 258.15 179.837 259.11V270H175.591V267.761H175.464C175.205 268.266 174.858 268.711 174.424 269.096C173.989 269.474 173.467 269.772 172.858 269.989C172.248 270.2 171.544 270.305 170.745 270.305ZM172.027 267.214C172.686 267.214 173.268 267.085 173.772 266.826C174.277 266.559 174.673 266.202 174.96 265.753C175.247 265.305 175.391 264.797 175.391 264.229V262.516C175.251 262.607 175.058 262.691 174.813 262.768C174.574 262.838 174.305 262.905 174.003 262.968C173.702 263.024 173.401 263.077 173.099 263.126C172.798 263.168 172.525 263.206 172.279 263.241C171.754 263.318 171.295 263.441 170.902 263.609C170.51 263.777 170.205 264.005 169.988 264.292C169.771 264.573 169.662 264.923 169.662 265.343C169.662 265.953 169.883 266.419 170.324 266.741C170.773 267.057 171.34 267.214 172.027 267.214ZM187.789 260.666V270H183.311V253.855H187.579V256.703H187.768C188.125 255.764 188.725 255.021 189.565 254.475C190.406 253.921 191.426 253.644 192.624 253.644C193.745 253.644 194.723 253.89 195.557 254.38C196.391 254.871 197.039 255.571 197.502 256.482C197.964 257.386 198.195 258.466 198.195 259.72V270H193.717V260.519C193.724 259.531 193.472 258.76 192.961 258.206C192.449 257.646 191.745 257.365 190.848 257.365C190.245 257.365 189.713 257.495 189.25 257.754C188.795 258.014 188.437 258.392 188.178 258.889C187.926 259.38 187.796 259.972 187.789 260.666ZM210.312 253.855V257.218H200.589V253.855H210.312ZM202.797 249.986H207.274V265.039C207.274 265.452 207.338 265.774 207.464 266.006C207.59 266.23 207.765 266.388 207.989 266.479C208.22 266.57 208.487 266.615 208.788 266.615C208.998 266.615 209.209 266.598 209.419 266.563C209.629 266.521 209.79 266.489 209.902 266.468L210.607 269.8C210.382 269.87 210.067 269.951 209.661 270.042C209.254 270.14 208.76 270.2 208.178 270.221C207.099 270.263 206.153 270.119 205.34 269.79C204.534 269.46 203.907 268.949 203.459 268.255C203.01 267.561 202.79 266.685 202.797 265.627V249.986ZM220.414 270.315C218.753 270.315 217.323 269.979 216.125 269.306C214.934 268.627 214.016 267.666 213.371 266.426C212.726 265.179 212.404 263.704 212.404 262.001C212.404 260.34 212.726 258.882 213.371 257.628C214.016 256.374 214.923 255.396 216.093 254.695C217.271 253.995 218.651 253.644 220.235 253.644C221.3 253.644 222.292 253.816 223.21 254.159C224.135 254.496 224.941 255.004 225.627 255.684C226.321 256.363 226.861 257.218 227.246 258.248C227.631 259.271 227.824 260.47 227.824 261.843V263.073H214.191V260.298H223.609C223.609 259.653 223.469 259.082 223.189 258.585C222.908 258.087 222.519 257.698 222.022 257.418C221.531 257.131 220.96 256.987 220.309 256.987C219.629 256.987 219.026 257.145 218.501 257.46C217.982 257.768 217.576 258.185 217.281 258.711C216.987 259.229 216.836 259.807 216.829 260.445V263.084C216.829 263.882 216.976 264.573 217.271 265.154C217.572 265.736 217.996 266.184 218.543 266.5C219.089 266.815 219.737 266.973 220.487 266.973C220.985 266.973 221.44 266.903 221.854 266.762C222.267 266.622 222.621 266.412 222.915 266.132C223.21 265.852 223.434 265.508 223.588 265.102L227.73 265.375C227.519 266.37 227.088 267.239 226.437 267.982C225.792 268.718 224.958 269.292 223.935 269.706C222.919 270.112 221.745 270.315 220.414 270.315ZM247.656 257.46V261.013H237.839V257.46H247.656ZM270.085 254.664C270.001 253.816 269.64 253.157 269.002 252.688C268.365 252.218 267.499 251.984 266.406 251.984C265.663 251.984 265.036 252.089 264.525 252.299C264.013 252.502 263.621 252.786 263.347 253.15C263.081 253.515 262.948 253.928 262.948 254.391C262.934 254.776 263.014 255.112 263.19 255.4C263.372 255.687 263.621 255.936 263.936 256.146C264.251 256.349 264.616 256.528 265.029 256.682C265.443 256.829 265.884 256.955 266.354 257.061L268.288 257.523C269.227 257.733 270.089 258.014 270.873 258.364C271.658 258.714 272.338 259.145 272.913 259.657C273.487 260.168 273.932 260.771 274.248 261.465C274.57 262.159 274.735 262.954 274.742 263.851C274.735 265.168 274.398 266.311 273.733 267.278C273.074 268.238 272.121 268.984 270.873 269.516C269.633 270.042 268.137 270.305 266.385 270.305C264.647 270.305 263.134 270.039 261.844 269.506C260.562 268.973 259.56 268.185 258.838 267.141C258.123 266.09 257.748 264.79 257.713 263.241H262.117C262.167 263.963 262.373 264.566 262.738 265.049C263.109 265.526 263.603 265.887 264.22 266.132C264.843 266.37 265.548 266.489 266.333 266.489C267.103 266.489 267.773 266.377 268.34 266.153C268.915 265.929 269.36 265.617 269.675 265.217C269.99 264.818 270.148 264.359 270.148 263.84C270.148 263.357 270.005 262.95 269.717 262.621C269.437 262.292 269.023 262.011 268.477 261.78C267.937 261.549 267.275 261.339 266.49 261.149L264.146 260.561C262.331 260.119 260.898 259.429 259.847 258.49C258.796 257.551 258.274 256.286 258.281 254.695C258.274 253.392 258.621 252.253 259.321 251.279C260.029 250.305 261 249.545 262.233 248.998C263.466 248.452 264.868 248.178 266.438 248.178C268.035 248.178 269.43 248.452 270.621 248.998C271.819 249.545 272.751 250.305 273.417 251.279C274.083 252.253 274.426 253.382 274.447 254.664H270.085ZM282.323 270.305C281.293 270.305 280.375 270.126 279.569 269.769C278.763 269.404 278.125 268.868 277.656 268.161C277.193 267.446 276.962 266.556 276.962 265.491C276.962 264.594 277.127 263.84 277.456 263.231C277.786 262.621 278.234 262.13 278.802 261.759C279.369 261.388 280.014 261.107 280.736 260.918C281.465 260.729 282.228 260.596 283.027 260.519C283.966 260.421 284.723 260.33 285.298 260.245C285.872 260.154 286.289 260.021 286.549 259.846C286.808 259.671 286.937 259.412 286.937 259.068V259.005C286.937 258.339 286.727 257.824 286.307 257.46C285.893 257.096 285.305 256.913 284.541 256.913C283.735 256.913 283.094 257.092 282.617 257.449C282.141 257.8 281.825 258.241 281.671 258.774L277.53 258.437C277.74 257.456 278.153 256.609 278.77 255.894C279.387 255.172 280.182 254.618 281.156 254.233C282.137 253.841 283.272 253.644 284.562 253.644C285.459 253.644 286.317 253.749 287.137 253.96C287.964 254.17 288.696 254.496 289.334 254.937C289.979 255.379 290.487 255.946 290.858 256.64C291.23 257.327 291.415 258.15 291.415 259.11V270H287.169V267.761H287.043C286.783 268.266 286.436 268.711 286.002 269.096C285.567 269.474 285.045 269.772 284.436 269.989C283.826 270.2 283.122 270.305 282.323 270.305ZM283.605 267.214C284.264 267.214 284.846 267.085 285.35 266.826C285.855 266.559 286.251 266.202 286.538 265.753C286.825 265.305 286.969 264.797 286.969 264.229V262.516C286.829 262.607 286.636 262.691 286.391 262.768C286.153 262.838 285.883 262.905 285.581 262.968C285.28 263.024 284.979 263.077 284.677 263.126C284.376 263.168 284.103 263.206 283.858 263.241C283.332 263.318 282.873 263.441 282.481 263.609C282.088 263.777 281.783 264.005 281.566 264.292C281.349 264.573 281.24 264.923 281.24 265.343C281.24 265.953 281.461 266.419 281.902 266.741C282.351 267.057 282.919 267.214 283.605 267.214ZM281.724 251.868L279.233 251.836C279.233 250.498 279.562 249.471 280.221 248.757C280.886 248.042 281.696 247.681 282.649 247.674C283.139 247.674 283.56 247.754 283.91 247.916C284.268 248.07 284.586 248.252 284.867 248.462C285.154 248.672 285.427 248.858 285.687 249.019C285.946 249.173 286.226 249.251 286.527 249.251C286.934 249.244 287.242 249.093 287.452 248.799C287.67 248.497 287.778 248.105 287.778 247.621L290.227 247.695C290.213 249.019 289.877 250.042 289.218 250.764C288.56 251.479 287.757 251.84 286.811 251.847C286.286 251.847 285.844 251.77 285.487 251.616C285.136 251.454 284.828 251.272 284.562 251.069C284.296 250.859 284.036 250.673 283.784 250.512C283.532 250.351 283.248 250.27 282.933 250.27C282.568 250.27 282.274 250.414 282.05 250.701C281.832 250.988 281.724 251.377 281.724 251.868ZM302.184 270.315C300.551 270.315 299.139 269.968 297.948 269.275C296.764 268.574 295.849 267.6 295.205 266.353C294.56 265.098 294.238 263.644 294.238 261.99C294.238 260.323 294.56 258.865 295.205 257.618C295.849 256.363 296.764 255.389 297.948 254.695C299.139 253.995 300.551 253.644 302.184 253.644C303.817 253.644 305.225 253.995 306.41 254.695C307.601 255.389 308.519 256.363 309.164 257.618C309.808 258.865 310.131 260.323 310.131 261.99C310.131 263.644 309.808 265.098 309.164 266.353C308.519 267.6 307.601 268.574 306.41 269.275C305.225 269.968 303.817 270.315 302.184 270.315ZM302.205 266.847C302.948 266.847 303.568 266.636 304.066 266.216C304.563 265.788 304.938 265.207 305.19 264.471C305.45 263.735 305.579 262.898 305.579 261.959C305.579 261.02 305.45 260.182 305.19 259.447C304.938 258.711 304.563 258.129 304.066 257.702C303.568 257.274 302.948 257.061 302.205 257.061C301.455 257.061 300.825 257.274 300.313 257.702C299.809 258.129 299.427 258.711 299.167 259.447C298.915 260.182 298.789 261.02 298.789 261.959C298.789 262.898 298.915 263.735 299.167 264.471C299.427 265.207 299.809 265.788 300.313 266.216C300.825 266.636 301.455 266.847 302.205 266.847ZM319.977 270V248.473H328.47C330.103 248.473 331.494 248.785 332.643 249.408C333.793 250.025 334.669 250.883 335.271 251.984C335.881 253.077 336.186 254.338 336.186 255.768C336.186 257.197 335.877 258.459 335.261 259.552C334.644 260.645 333.751 261.496 332.58 262.106C331.417 262.716 330.009 263.02 328.355 263.02H322.941V259.373H327.619C328.495 259.373 329.217 259.222 329.784 258.921C330.359 258.613 330.786 258.189 331.067 257.649C331.354 257.103 331.498 256.475 331.498 255.768C331.498 255.053 331.354 254.429 331.067 253.897C330.786 253.357 330.359 252.94 329.784 252.646C329.21 252.344 328.481 252.194 327.598 252.194H324.529V270H319.977ZM343.228 270.305C342.198 270.305 341.28 270.126 340.474 269.769C339.669 269.404 339.031 268.868 338.561 268.161C338.099 267.446 337.868 266.556 337.868 265.491C337.868 264.594 338.032 263.84 338.362 263.231C338.691 262.621 339.14 262.13 339.707 261.759C340.275 261.388 340.919 261.107 341.641 260.918C342.37 260.729 343.134 260.596 343.933 260.519C344.872 260.421 345.629 260.33 346.203 260.245C346.778 260.154 347.195 260.021 347.454 259.846C347.713 259.671 347.843 259.412 347.843 259.068V259.005C347.843 258.339 347.633 257.824 347.212 257.46C346.799 257.096 346.21 256.913 345.446 256.913C344.64 256.913 343.999 257.092 343.523 257.449C343.046 257.8 342.731 258.241 342.577 258.774L338.435 258.437C338.645 257.456 339.059 256.609 339.676 255.894C340.292 255.172 341.088 254.618 342.062 254.233C343.043 253.841 344.178 253.644 345.467 253.644C346.364 253.644 347.223 253.749 348.043 253.96C348.87 254.17 349.602 254.496 350.24 254.937C350.884 255.379 351.392 255.946 351.764 256.64C352.135 257.327 352.321 258.15 352.321 259.11V270H348.074V267.761H347.948C347.689 268.266 347.342 268.711 346.907 269.096C346.473 269.474 345.951 269.772 345.341 269.989C344.732 270.2 344.027 270.305 343.228 270.305ZM344.511 267.214C345.17 267.214 345.751 267.085 346.256 266.826C346.76 266.559 347.156 266.202 347.443 265.753C347.731 265.305 347.874 264.797 347.874 264.229V262.516C347.734 262.607 347.542 262.691 347.296 262.768C347.058 262.838 346.788 262.905 346.487 262.968C346.186 263.024 345.884 263.077 345.583 263.126C345.282 263.168 345.008 263.206 344.763 263.241C344.238 263.318 343.779 263.441 343.386 263.609C342.994 263.777 342.689 264.005 342.472 264.292C342.254 264.573 342.146 264.923 342.146 265.343C342.146 265.953 342.367 266.419 342.808 266.741C343.256 267.057 343.824 267.214 344.511 267.214ZM366.148 263.126V253.855H370.626V270H366.327V267.067H366.159C365.795 268.013 365.188 268.774 364.34 269.348C363.5 269.923 362.473 270.21 361.261 270.21C360.181 270.21 359.232 269.965 358.412 269.474C357.592 268.984 356.951 268.287 356.488 267.383C356.033 266.479 355.802 265.396 355.795 264.135V253.855H360.273V263.336C360.28 264.289 360.535 265.042 361.04 265.596C361.544 266.149 362.221 266.426 363.069 266.426C363.608 266.426 364.113 266.304 364.582 266.058C365.052 265.806 365.43 265.435 365.717 264.944C366.012 264.454 366.155 263.847 366.148 263.126ZM378.686 248.473V270H374.208V248.473H378.686ZM389.568 270.315C387.935 270.315 386.523 269.968 385.332 269.275C384.147 268.574 383.233 267.6 382.588 266.353C381.944 265.098 381.621 263.644 381.621 261.99C381.621 260.323 381.944 258.865 382.588 257.618C383.233 256.363 384.147 255.389 385.332 254.695C386.523 253.995 387.935 253.644 389.568 253.644C391.201 253.644 392.609 253.995 393.793 254.695C394.985 255.389 395.903 256.363 396.547 257.618C397.192 258.865 397.514 260.323 397.514 261.99C397.514 263.644 397.192 265.098 396.547 266.353C395.903 267.6 394.985 268.574 393.793 269.275C392.609 269.968 391.201 270.315 389.568 270.315ZM389.589 266.847C390.332 266.847 390.952 266.636 391.449 266.216C391.947 265.788 392.322 265.207 392.574 264.471C392.833 263.735 392.963 262.898 392.963 261.959C392.963 261.02 392.833 260.182 392.574 259.447C392.322 258.711 391.947 258.129 391.449 257.702C390.952 257.274 390.332 257.061 389.589 257.061C388.839 257.061 388.208 257.274 387.697 257.702C387.192 258.129 386.81 258.711 386.551 259.447C386.299 260.182 386.173 261.02 386.173 261.959C386.173 262.898 386.299 263.735 386.551 264.471C386.81 265.207 387.192 265.788 387.697 266.216C388.208 266.636 388.839 266.847 389.589 266.847Z" fill="white"/>
</svg>
